<svg id="Layer_1" data-name="Layer 1" xmlns="http://www.w3.org/2000/svg" viewBox="0 0 178 48"><defs><style>.cls-1{fill:#fff;}</style></defs><title>Artboard 1</title><polygon class="cls-1" points="52.93 46.04 53.83 32.16 52.19 32.16 52.93 46.04"/><polygon class="cls-1" points="35.53 11.97 42.92 18 44.99 18 35.53 11.97"/><polygon class="cls-1" points="60.51 1 54.24 18 56.05 18 60.51 1"/><polygon class="cls-1" points="46.54 4.83 49.98 18 51.77 18 46.54 4.83"/><polygon class="cls-1" points="38.42 4.83 47.21 18 49.21 18 38.42 4.83"/><polygon class="cls-1" points="72.05 38.45 64.27 32.16 62.37 32.16 72.05 38.45"/><polygon class="cls-1" points="65.02 8.47 56.87 18 58.79 18 65.02 8.47"/><polygon class="cls-1" points="71.09 11.53 61.02 18 63.13 18 71.09 11.53"/><polygon class="cls-1" points="53.02 1.1 52.14 18 53.89 18 53.02 1.1"/><polygon class="cls-1" points="45.75 47 51.43 32.16 49.73 32.16 45.75 47"/><polygon class="cls-1" points="60.29 47 56.3 32.16 54.6 32.16 60.29 47"/><polygon class="cls-1" points="64.93 40.93 59.33 32.16 57.6 32.16 64.93 40.93"/><polygon class="cls-1" points="35.57 37.44 43.67 32.16 41.92 32.16 35.57 37.44"/><polygon class="cls-1" points="40.85 41.53 48.48 32.16 46.73 32.16 40.85 41.53"/><path class="cls-1" d="M41.58,22.86l-.72.43s-.5.33-1-.37a2.51,2.51,0,0,0-.27-.33A2.09,2.09,0,0,0,38,21.91c-1.4,0-2.23,1.12-2.23,3s.86,3,2.36,3a2.17,2.17,0,0,0,1.49-.59c.16-.15.26-.29.41-.44a.8.8,0,0,1,.92-.18l.62.44a.78.78,0,0,1,.25,1,2.74,2.74,0,0,1-.44.51,3.6,3.6,0,0,1-.82.63,4.5,4.5,0,0,1-2.41.6c-2.92,0-4.76-1.92-4.76-5s1.82-5,4.46-5a4.41,4.41,0,0,1,3.3,1.16,3.36,3.36,0,0,1,.55.71C42.11,22.57,41.58,22.86,41.58,22.86Zm7.63-2.66a.86.86,0,0,1,.75.54l3,8.35a.38.38,0,0,1-.37.54H51.42a.85.85,0,0,1-.75-.54l-.25-.73a.85.85,0,0,0-.75-.54H47a.85.85,0,0,0-.75.54l-.25.73a.85.85,0,0,1-.75.54H44.15a.38.38,0,0,1-.37-.54l2.92-8.35a.86.86,0,0,1,.75-.54Zm-2,5.25a.38.38,0,0,0,.38.54h1.45a.38.38,0,0,0,.38-.54l-.93-2.72c-.1-.3-.27-.3-.37,0Zm15.21-3.17-.46.4s-.35.3-.89-.23l-.16-.16a2.81,2.81,0,0,0-2-.65c-1.19,0-1.88.38-1.88,1s.49.84,2,1.07a8.9,8.9,0,0,1,2.68.77,6.83,6.83,0,0,1,.69.5,2.43,2.43,0,0,1,.68,1.79,2.86,2.86,0,0,1-.76,2c-.73.77-1.76,1.1-3.47,1.1a5,5,0,0,1-3.59-1,3.16,3.16,0,0,1-.54-.59.69.69,0,0,1,.11-.92l.53-.52a.53.53,0,0,1,.72.12,5.72,5.72,0,0,0,.42.45,3,3,0,0,0,2.32.81c1.35,0,2.08-.38,2.08-1.07s-.64-1-2.21-1.22c-1.76-.24-2.2-.34-3.18-1.21A2.32,2.32,0,0,1,54.9,23a2.71,2.71,0,0,1,1.74-2.67A5.94,5.94,0,0,1,58.92,20,4.85,4.85,0,0,1,62.24,21a3.06,3.06,0,0,1,.29.3C63,21.79,62.45,22.28,62.45,22.28Zm9.26-2.09a.45.45,0,0,1,.45.56l-.12.6a.72.72,0,0,1-.68.56H68.68a.57.57,0,0,0-.56.57v.81a.57.57,0,0,0,.56.57h2.39a.57.57,0,0,1,.56.57V25a.57.57,0,0,1-.56.58H68.68a.57.57,0,0,0-.56.57v1.14a.57.57,0,0,0,.56.57h2.78a.73.73,0,0,1,.68.56l.12.6a.45.45,0,0,1-.45.56H66.43a.57.57,0,0,1-.56-.57V20.77a.57.57,0,0,1,.56-.57Z"/><path class="cls-1" d="M8.43,20.19a.57.57,0,0,1,.56.57v.8a.57.57,0,0,1-.56.58H6.68a.57.57,0,0,0-.56.57v6.34a.57.57,0,0,1-.56.57H4.41a.57.57,0,0,1-.56-.57V22.72a.57.57,0,0,0-.56-.57H1.56A.57.57,0,0,1,1,21.57v-.8a.57.57,0,0,1,.56-.57Z"/><path class="cls-1" d="M12.66,20.19a.57.57,0,0,1,.56.57v2.53a.57.57,0,0,0,.56.57h2.89a.57.57,0,0,0,.56-.57V20.77a.57.57,0,0,1,.56-.57h1.14a.57.57,0,0,1,.56.57v8.28a.57.57,0,0,1-.56.57H17.79a.57.57,0,0,1-.56-.57V26.22a.57.57,0,0,0-.56-.57h-2.9a.57.57,0,0,0-.56.57v2.83a.57.57,0,0,1-.56.57H11.5a.57.57,0,0,1-.56-.57V20.77a.57.57,0,0,1,.56-.57Z"/><path class="cls-1" d="M28.27,20.19a.45.45,0,0,1,.45.56l-.12.6a.73.73,0,0,1-.68.56H25.24a.57.57,0,0,0-.56.57v.81a.57.57,0,0,0,.56.57h2.39a.57.57,0,0,1,.56.57V25a.57.57,0,0,1-.56.58H25.24a.57.57,0,0,0-.56.57v1.14a.57.57,0,0,0,.56.57H28a.73.73,0,0,1,.68.56l.12.6a.45.45,0,0,1-.45.56H23a.57.57,0,0,1-.56-.57V20.77a.57.57,0,0,1,.56-.57Z"/><path class="cls-1" d="M84.15,20.19a.45.45,0,0,1,.45.56l-.11.57a.72.72,0,0,1-.67.56H81a.57.57,0,0,0-.56.57v1.08a.57.57,0,0,0,.56.58h2.37a.57.57,0,0,1,.56.57v.56a.57.57,0,0,1-.56.57H81a.57.57,0,0,0-.56.57v2.64a.57.57,0,0,1-.56.57H78.76a.57.57,0,0,1-.56-.57V20.77a.57.57,0,0,1,.56-.57Z"/><path class="cls-1" d="M95,21.24a4.94,4.94,0,0,1,1.41,3.66,4.8,4.8,0,0,1-1.37,3.69,4.45,4.45,0,0,1-3.37,1.33,4.51,4.51,0,0,1-3.45-1.36A4.82,4.82,0,0,1,86.9,25a4.64,4.64,0,0,1,4.69-5h.06A4.5,4.5,0,0,1,95,21.24Zm-5.74,3.7c0,1.84.9,3,2.37,3s2.4-1.11,2.4-3S93.16,22,91.71,22h0C90.17,22,89.3,23.11,89.3,24.94Z"/><path class="cls-1" d="M99.35,20.19h1.07a.56.56,0,0,1,.61.54v5.36c0,1.23.54,1.85,1.65,1.85s1.76-.61,1.76-1.88V20.68a.5.5,0,0,1,.51-.49h1.19a.53.53,0,0,1,.57.48v6c0,2.12-1.36,3.21-4,3.19a4.1,4.1,0,0,1-3.17-1,2.71,2.71,0,0,1-.74-2.3V20.78S98.81,20.19,99.35,20.19Z"/><path class="cls-1" d="M111.85,20.19a1.1,1.1,0,0,1,.85.49l2.67,4.55c.16.27.29.23.29-.08V20.77a.57.57,0,0,1,.56-.57h1a.57.57,0,0,1,.56.57v8.28a.57.57,0,0,1-.56.57h-1.35a1.1,1.1,0,0,1-.85-.49l-2.85-4.89c-.16-.27-.29-.24-.29.08v4.73a.57.57,0,0,1-.56.57h-1.05a.57.57,0,0,1-.56-.57V20.77a.57.57,0,0,1,.56-.57Z"/><path class="cls-1" d="M121.76,20.19h4c2.44,0,4,1.88,4,4.8s-1.54,4.63-4,4.63h-4a.67.67,0,0,1-.67-.69v-8S121,20.19,121.76,20.19Zm1.61,2.39v4.57a.5.5,0,0,0,.53.5h1.19q2.31,0,2.31-2.71c0-1.79-.74-2.8-2.08-2.8h-1.53A.42.42,0,0,0,123.37,22.58Z"/><path class="cls-1" d="M136.74,20.19a.86.86,0,0,1,.75.54l3,8.35a.38.38,0,0,1-.37.54H139a.85.85,0,0,1-.75-.54l-.25-.73a.85.85,0,0,0-.75-.54h-2.67a.85.85,0,0,0-.75.54l-.25.73a.85.85,0,0,1-.75.54h-1.12a.38.38,0,0,1-.37-.54l2.92-8.35a.86.86,0,0,1,.75-.54Zm-2,5.25a.38.38,0,0,0,.38.54h1.45a.38.38,0,0,0,.38-.54l-.93-2.72c-.1-.3-.27-.3-.37,0Z"/><path class="cls-1" d="M148.82,20.19a.57.57,0,0,1,.56.57v.8a.57.57,0,0,1-.56.58h-1.75a.57.57,0,0,0-.56.57v6.34a.57.57,0,0,1-.56.57h-1.14a.57.57,0,0,1-.56-.57V22.72a.57.57,0,0,0-.56-.57H142a.57.57,0,0,1-.56-.58v-.8a.57.57,0,0,1,.56-.57Z"/><path class="cls-1" d="M153.6,20.19a.57.57,0,0,1,.56.57v8.28a.57.57,0,0,1-.56.57h-1.13a.57.57,0,0,1-.56-.57V20.77a.57.57,0,0,1,.56-.57Z"/><path class="cls-1" d="M165.18,21.24a4.94,4.94,0,0,1,1.41,3.66,4.8,4.8,0,0,1-1.37,3.69,4.44,4.44,0,0,1-3.37,1.33,4.51,4.51,0,0,1-3.45-1.36A4.82,4.82,0,0,1,157,25a4.64,4.64,0,0,1,4.69-5h.06A4.5,4.5,0,0,1,165.18,21.24Zm-5.74,3.7c0,1.84.9,3,2.37,3s2.4-1.11,2.4-3S163.3,22,161.85,22h0C160.31,22,159.44,23.11,159.44,24.94Z"/><path class="cls-1" d="M171,20.19a.87.87,0,0,1,.85.49l2.67,4.55c.16.27.29.23.29-.08V20.77a.57.57,0,0,1,.56-.57h1a.57.57,0,0,1,.56.57v8.28a.57.57,0,0,1-.56.57h-1.35a1.1,1.1,0,0,1-.85-.49l-2.85-4.89c-.16-.27-.29-.24-.29.08v4.73a.57.57,0,0,1-.56.57h-1.05a.57.57,0,0,1-.56-.57V20.77a.57.57,0,0,1,.56-.57Z"/></svg>